<mxfile host="app.diagrams.net" agent="Mozilla/5.0 (Windows NT 10.0; Win64; x64) AppleWebKit/537.36 (KHTML, like Gecko) Chrome/135.0.0.0 Safari/537.36" version="26.2.14">
  <diagram name="Page-1" id="ORakzUnhV8JCbeobNpkM">
    <mxGraphModel dx="1489" dy="940" grid="1" gridSize="10" guides="1" tooltips="1" connect="1" arrows="1" fold="1" page="1" pageScale="1" pageWidth="850" pageHeight="1100" math="0" shadow="0">
      <root>
        <mxCell id="0" />
        <mxCell id="1" parent="0" />
        <mxCell id="PPV0CoCjDwiKYYMUzD3a-6" value="User" style="swimlane;fontStyle=0;align=center;verticalAlign=top;childLayout=stackLayout;horizontal=1;startSize=30;horizontalStack=0;resizeParent=1;resizeParentMax=0;resizeLast=0;collapsible=0;marginBottom=0;html=1;whiteSpace=wrap;" parent="1" vertex="1">
          <mxGeometry x="60" y="240" width="140" height="240" as="geometry" />
        </mxCell>
        <mxCell id="PPV0CoCjDwiKYYMUzD3a-8" value="-userId : Integer&lt;div&gt;-name : String&lt;/div&gt;&lt;div&gt;-email : String&lt;/div&gt;&lt;div&gt;-password : String&lt;/div&gt;" style="text;html=1;strokeColor=none;fillColor=none;align=left;verticalAlign=middle;spacingLeft=4;spacingRight=4;overflow=hidden;rotatable=0;points=[[0,0.5],[1,0.5]];portConstraint=eastwest;whiteSpace=wrap;" parent="PPV0CoCjDwiKYYMUzD3a-6" vertex="1">
          <mxGeometry y="30" width="140" height="80" as="geometry" />
        </mxCell>
        <mxCell id="PPV0CoCjDwiKYYMUzD3a-11" value="" style="line;strokeWidth=1;fillColor=none;align=left;verticalAlign=middle;spacingTop=-1;spacingLeft=3;spacingRight=3;rotatable=0;labelPosition=right;points=[];portConstraint=eastwest;" parent="PPV0CoCjDwiKYYMUzD3a-6" vertex="1">
          <mxGeometry y="110" width="140" height="8" as="geometry" />
        </mxCell>
        <mxCell id="PPV0CoCjDwiKYYMUzD3a-13" value="+getName() : String&lt;div&gt;+getUserId() : Integer&lt;/div&gt;&lt;div&gt;+getEmail() : String&lt;div&gt;+getPassword() : String&lt;br&gt;&lt;div&gt;+setName() : void&lt;div&gt;+setUserId() : void&lt;/div&gt;&lt;div&gt;+setEmail() : void&lt;div&gt;+setPassword() : void&lt;/div&gt;&lt;/div&gt;&lt;/div&gt;&lt;/div&gt;&lt;/div&gt;" style="text;html=1;strokeColor=none;fillColor=none;align=left;verticalAlign=middle;spacingLeft=4;spacingRight=4;overflow=hidden;rotatable=0;points=[[0,0.5],[1,0.5]];portConstraint=eastwest;whiteSpace=wrap;" parent="PPV0CoCjDwiKYYMUzD3a-6" vertex="1">
          <mxGeometry y="118" width="140" height="122" as="geometry" />
        </mxCell>
        <mxCell id="PPV0CoCjDwiKYYMUzD3a-34" style="edgeStyle=orthogonalEdgeStyle;rounded=0;orthogonalLoop=1;jettySize=auto;html=1;endArrow=block;endFill=0;" parent="1" source="PPV0CoCjDwiKYYMUzD3a-16" target="PPV0CoCjDwiKYYMUzD3a-6" edge="1">
          <mxGeometry relative="1" as="geometry" />
        </mxCell>
        <mxCell id="PPV0CoCjDwiKYYMUzD3a-16" value="Authority" style="swimlane;fontStyle=0;align=center;verticalAlign=top;childLayout=stackLayout;horizontal=1;startSize=20;horizontalStack=0;resizeParent=1;resizeParentMax=0;resizeLast=0;collapsible=0;marginBottom=0;html=1;whiteSpace=wrap;" parent="1" vertex="1">
          <mxGeometry x="330" y="110" width="170" height="80" as="geometry" />
        </mxCell>
        <mxCell id="PPV0CoCjDwiKYYMUzD3a-17" value="-department : String" style="text;html=1;strokeColor=none;fillColor=none;align=left;verticalAlign=middle;spacingLeft=4;spacingRight=4;overflow=hidden;rotatable=0;points=[[0,0.5],[1,0.5]];portConstraint=eastwest;whiteSpace=wrap;" parent="PPV0CoCjDwiKYYMUzD3a-16" vertex="1">
          <mxGeometry y="20" width="170" height="20" as="geometry" />
        </mxCell>
        <mxCell id="PPV0CoCjDwiKYYMUzD3a-18" value="" style="line;strokeWidth=1;fillColor=none;align=left;verticalAlign=middle;spacingTop=-1;spacingLeft=3;spacingRight=3;rotatable=0;labelPosition=right;points=[];portConstraint=eastwest;" parent="PPV0CoCjDwiKYYMUzD3a-16" vertex="1">
          <mxGeometry y="40" width="170" height="8" as="geometry" />
        </mxCell>
        <mxCell id="PPV0CoCjDwiKYYMUzD3a-19" value="+getDepartment() : String" style="text;html=1;strokeColor=none;fillColor=none;align=left;verticalAlign=middle;spacingLeft=4;spacingRight=4;overflow=hidden;rotatable=0;points=[[0,0.5],[1,0.5]];portConstraint=eastwest;whiteSpace=wrap;" parent="PPV0CoCjDwiKYYMUzD3a-16" vertex="1">
          <mxGeometry y="48" width="170" height="32" as="geometry" />
        </mxCell>
        <mxCell id="PPV0CoCjDwiKYYMUzD3a-20" value="Student" style="swimlane;fontStyle=0;align=center;verticalAlign=top;childLayout=stackLayout;horizontal=1;startSize=30;horizontalStack=0;resizeParent=1;resizeParentMax=0;resizeLast=0;collapsible=0;marginBottom=0;html=1;whiteSpace=wrap;" parent="1" vertex="1">
          <mxGeometry x="345" y="230" width="180" height="180" as="geometry" />
        </mxCell>
        <mxCell id="PPV0CoCjDwiKYYMUzD3a-21" value="-totalUpVote : Integer&lt;div&gt;-totalComment : Integer&lt;br&gt;&lt;/div&gt;" style="text;html=1;strokeColor=none;fillColor=none;align=left;verticalAlign=middle;spacingLeft=4;spacingRight=4;overflow=hidden;rotatable=0;points=[[0,0.5],[1,0.5]];portConstraint=eastwest;whiteSpace=wrap;" parent="PPV0CoCjDwiKYYMUzD3a-20" vertex="1">
          <mxGeometry y="30" width="180" height="80" as="geometry" />
        </mxCell>
        <mxCell id="PPV0CoCjDwiKYYMUzD3a-22" value="" style="line;strokeWidth=1;fillColor=none;align=left;verticalAlign=middle;spacingTop=-1;spacingLeft=3;spacingRight=3;rotatable=0;labelPosition=right;points=[];portConstraint=eastwest;" parent="PPV0CoCjDwiKYYMUzD3a-20" vertex="1">
          <mxGeometry y="110" width="180" height="8" as="geometry" />
        </mxCell>
        <mxCell id="PPV0CoCjDwiKYYMUzD3a-23" value="+getTotalUpVote() : Integer&lt;div&gt;+getTotalComment() : Integer&lt;/div&gt;" style="text;html=1;strokeColor=none;fillColor=none;align=left;verticalAlign=middle;spacingLeft=4;spacingRight=4;overflow=hidden;rotatable=0;points=[[0,0.5],[1,0.5]];portConstraint=eastwest;whiteSpace=wrap;" parent="PPV0CoCjDwiKYYMUzD3a-20" vertex="1">
          <mxGeometry y="118" width="180" height="62" as="geometry" />
        </mxCell>
        <mxCell id="PPV0CoCjDwiKYYMUzD3a-35" style="edgeStyle=orthogonalEdgeStyle;rounded=0;orthogonalLoop=1;jettySize=auto;html=1;entryX=0.986;entryY=0.287;entryDx=0;entryDy=0;entryPerimeter=0;endArrow=block;endFill=0;" parent="1" source="PPV0CoCjDwiKYYMUzD3a-20" target="PPV0CoCjDwiKYYMUzD3a-13" edge="1">
          <mxGeometry relative="1" as="geometry" />
        </mxCell>
        <mxCell id="PPV0CoCjDwiKYYMUzD3a-36" value="Notification" style="swimlane;fontStyle=0;align=center;verticalAlign=top;childLayout=stackLayout;horizontal=1;startSize=20;horizontalStack=0;resizeParent=1;resizeParentMax=0;resizeLast=0;collapsible=0;marginBottom=0;html=1;whiteSpace=wrap;" parent="1" vertex="1">
          <mxGeometry x="261" y="600" width="170" height="140" as="geometry" />
        </mxCell>
        <mxCell id="PPV0CoCjDwiKYYMUzD3a-37" value="-notificationId : Integer&lt;div&gt;-content : String&lt;br&gt;&lt;/div&gt;&lt;div&gt;-isRead : boolean&lt;br&gt;&lt;/div&gt;" style="text;html=1;strokeColor=none;fillColor=none;align=left;verticalAlign=middle;spacingLeft=4;spacingRight=4;overflow=hidden;rotatable=0;points=[[0,0.5],[1,0.5]];portConstraint=eastwest;whiteSpace=wrap;" parent="PPV0CoCjDwiKYYMUzD3a-36" vertex="1">
          <mxGeometry y="20" width="170" height="50" as="geometry" />
        </mxCell>
        <mxCell id="PPV0CoCjDwiKYYMUzD3a-38" value="" style="line;strokeWidth=1;fillColor=none;align=left;verticalAlign=middle;spacingTop=-1;spacingLeft=3;spacingRight=3;rotatable=0;labelPosition=right;points=[];portConstraint=eastwest;" parent="PPV0CoCjDwiKYYMUzD3a-36" vertex="1">
          <mxGeometry y="70" width="170" height="8" as="geometry" />
        </mxCell>
        <mxCell id="PPV0CoCjDwiKYYMUzD3a-39" value="+getNotificationId() : Integer&lt;div&gt;+getContent() : String&lt;br&gt;&lt;/div&gt;&lt;div&gt;+getIsRead() : boolean&lt;br&gt;&lt;/div&gt;" style="text;html=1;strokeColor=none;fillColor=none;align=left;verticalAlign=middle;spacingLeft=4;spacingRight=4;overflow=hidden;rotatable=0;points=[[0,0.5],[1,0.5]];portConstraint=eastwest;whiteSpace=wrap;" parent="PPV0CoCjDwiKYYMUzD3a-36" vertex="1">
          <mxGeometry y="78" width="170" height="62" as="geometry" />
        </mxCell>
        <mxCell id="PPV0CoCjDwiKYYMUzD3a-40" style="edgeStyle=orthogonalEdgeStyle;rounded=0;orthogonalLoop=1;jettySize=auto;html=1;entryX=-0.006;entryY=0.138;entryDx=0;entryDy=0;entryPerimeter=0;" parent="1" source="PPV0CoCjDwiKYYMUzD3a-13" target="PPV0CoCjDwiKYYMUzD3a-36" edge="1">
          <mxGeometry relative="1" as="geometry" />
        </mxCell>
        <mxCell id="PPV0CoCjDwiKYYMUzD3a-72" style="rounded=0;orthogonalLoop=1;jettySize=auto;html=1;entryX=0;entryY=0.25;entryDx=0;entryDy=0;" parent="1" source="PPV0CoCjDwiKYYMUzD3a-41" target="PPV0CoCjDwiKYYMUzD3a-61" edge="1">
          <mxGeometry relative="1" as="geometry" />
        </mxCell>
        <mxCell id="PPV0CoCjDwiKYYMUzD3a-73" style="rounded=0;orthogonalLoop=1;jettySize=auto;html=1;entryX=0;entryY=0.25;entryDx=0;entryDy=0;endArrow=diamond;endFill=1;" parent="1" source="PPV0CoCjDwiKYYMUzD3a-41" target="PPV0CoCjDwiKYYMUzD3a-59" edge="1">
          <mxGeometry relative="1" as="geometry" />
        </mxCell>
        <mxCell id="PPV0CoCjDwiKYYMUzD3a-74" style="rounded=0;orthogonalLoop=1;jettySize=auto;html=1;entryX=0;entryY=0.25;entryDx=0;entryDy=0;" parent="1" source="PPV0CoCjDwiKYYMUzD3a-41" target="PPV0CoCjDwiKYYMUzD3a-64" edge="1">
          <mxGeometry relative="1" as="geometry" />
        </mxCell>
        <mxCell id="PPV0CoCjDwiKYYMUzD3a-41" value="ProblemReport" style="swimlane;fontStyle=0;align=center;verticalAlign=top;childLayout=stackLayout;horizontal=1;startSize=30;horizontalStack=0;resizeParent=1;resizeParentMax=0;resizeLast=0;collapsible=0;marginBottom=0;html=1;whiteSpace=wrap;" parent="1" vertex="1">
          <mxGeometry x="670" y="230" width="180" height="310" as="geometry" />
        </mxCell>
        <mxCell id="PPV0CoCjDwiKYYMUzD3a-42" value="-repotId : Integer&lt;div&gt;-repotTitle : String&lt;br&gt;&lt;/div&gt;&lt;div&gt;-description : String&lt;/div&gt;&lt;div&gt;-time : LocalDateTime&lt;/div&gt;&lt;div&gt;-status : String&lt;/div&gt;&lt;div&gt;-location : GeoPoint&lt;/div&gt;" style="text;html=1;strokeColor=none;fillColor=none;align=left;verticalAlign=middle;spacingLeft=4;spacingRight=4;overflow=hidden;rotatable=0;points=[[0,0.5],[1,0.5]];portConstraint=eastwest;whiteSpace=wrap;" parent="PPV0CoCjDwiKYYMUzD3a-41" vertex="1">
          <mxGeometry y="30" width="180" height="100" as="geometry" />
        </mxCell>
        <mxCell id="PPV0CoCjDwiKYYMUzD3a-43" value="" style="line;strokeWidth=1;fillColor=none;align=left;verticalAlign=middle;spacingTop=-1;spacingLeft=3;spacingRight=3;rotatable=0;labelPosition=right;points=[];portConstraint=eastwest;" parent="PPV0CoCjDwiKYYMUzD3a-41" vertex="1">
          <mxGeometry y="130" width="180" height="8" as="geometry" />
        </mxCell>
        <mxCell id="PPV0CoCjDwiKYYMUzD3a-44" value="&lt;div&gt;+getReportId() : Integer&lt;/div&gt;&lt;div&gt;+getReportTitle() : String&lt;/div&gt;&lt;div&gt;+getDescription() : String&lt;/div&gt;&lt;div&gt;+getTime() : LocalDateTime&lt;/div&gt;&lt;div&gt;+getStatus() : String&lt;/div&gt;&lt;div&gt;+getLocation() : GeoPoint&lt;/div&gt;&lt;div&gt;+setReportId() : void&lt;/div&gt;&lt;div&gt;+setReportTitle() : void&lt;/div&gt;&lt;div&gt;+setDescription() : void&lt;/div&gt;&lt;div&gt;+setStatus() : void&lt;/div&gt;&lt;div&gt;+setLocation() : void&lt;/div&gt;" style="text;html=1;strokeColor=none;fillColor=none;align=left;verticalAlign=middle;spacingLeft=4;spacingRight=4;overflow=hidden;rotatable=0;points=[[0,0.5],[1,0.5]];portConstraint=eastwest;whiteSpace=wrap;" parent="PPV0CoCjDwiKYYMUzD3a-41" vertex="1">
          <mxGeometry y="138" width="180" height="172" as="geometry" />
        </mxCell>
        <mxCell id="PPV0CoCjDwiKYYMUzD3a-45" style="edgeStyle=orthogonalEdgeStyle;rounded=0;orthogonalLoop=1;jettySize=auto;html=1;entryX=-0.009;entryY=0.073;entryDx=0;entryDy=0;entryPerimeter=0;" parent="1" source="PPV0CoCjDwiKYYMUzD3a-20" target="PPV0CoCjDwiKYYMUzD3a-41" edge="1">
          <mxGeometry relative="1" as="geometry" />
        </mxCell>
        <mxCell id="PPV0CoCjDwiKYYMUzD3a-57" value="Vote" style="swimlane;fontStyle=0;align=center;verticalAlign=top;childLayout=stackLayout;horizontal=1;startSize=20;horizontalStack=0;resizeParent=1;resizeParentMax=0;resizeLast=0;collapsible=0;marginBottom=0;html=1;whiteSpace=wrap;" parent="1" vertex="1">
          <mxGeometry x="930" y="285" width="150" height="70" as="geometry" />
        </mxCell>
        <mxCell id="PPV0CoCjDwiKYYMUzD3a-58" value="-upVoteCount : Integer&lt;div&gt;-downVoteCount : Integer&lt;/div&gt;" style="text;html=1;strokeColor=none;fillColor=none;align=left;verticalAlign=middle;spacingLeft=4;spacingRight=4;overflow=hidden;rotatable=0;points=[[0,0.5],[1,0.5]];portConstraint=eastwest;whiteSpace=wrap;" parent="PPV0CoCjDwiKYYMUzD3a-57" vertex="1">
          <mxGeometry y="20" width="150" height="50" as="geometry" />
        </mxCell>
        <mxCell id="PPV0CoCjDwiKYYMUzD3a-59" value="GeoPoint" style="swimlane;fontStyle=0;align=center;verticalAlign=top;childLayout=stackLayout;horizontal=1;startSize=30;horizontalStack=0;resizeParent=1;resizeParentMax=0;resizeLast=0;collapsible=0;marginBottom=0;html=1;whiteSpace=wrap;" parent="1" vertex="1">
          <mxGeometry x="930" y="570" width="140" height="70" as="geometry" />
        </mxCell>
        <mxCell id="PPV0CoCjDwiKYYMUzD3a-60" value="-latitude : double&lt;div&gt;-longtitude : double&lt;br&gt;&lt;/div&gt;" style="text;html=1;strokeColor=none;fillColor=none;align=left;verticalAlign=middle;spacingLeft=4;spacingRight=4;overflow=hidden;rotatable=0;points=[[0,0.5],[1,0.5]];portConstraint=eastwest;whiteSpace=wrap;" parent="PPV0CoCjDwiKYYMUzD3a-59" vertex="1">
          <mxGeometry y="30" width="140" height="40" as="geometry" />
        </mxCell>
        <mxCell id="PPV0CoCjDwiKYYMUzD3a-61" value="Category" style="swimlane;fontStyle=0;align=center;verticalAlign=top;childLayout=stackLayout;horizontal=1;startSize=40;horizontalStack=0;resizeParent=1;resizeParentMax=0;resizeLast=0;collapsible=0;marginBottom=0;html=1;whiteSpace=wrap;" parent="1" vertex="1">
          <mxGeometry x="930" y="410" width="140" height="100" as="geometry" />
        </mxCell>
        <mxCell id="PPV0CoCjDwiKYYMUzD3a-62" value="&lt;div&gt;-categoryId: Integer&amp;nbsp;&lt;/div&gt;&lt;div&gt;-name: String&amp;nbsp;&lt;/div&gt;" style="text;html=1;strokeColor=none;fillColor=none;align=left;verticalAlign=middle;spacingLeft=4;spacingRight=4;overflow=hidden;rotatable=0;points=[[0,0.5],[1,0.5]];portConstraint=eastwest;whiteSpace=wrap;" parent="PPV0CoCjDwiKYYMUzD3a-61" vertex="1">
          <mxGeometry y="40" width="140" height="60" as="geometry" />
        </mxCell>
        <mxCell id="PPV0CoCjDwiKYYMUzD3a-64" value="MediaAttachement" style="swimlane;fontStyle=0;align=center;verticalAlign=top;childLayout=stackLayout;horizontal=1;startSize=40;horizontalStack=0;resizeParent=1;resizeParentMax=0;resizeLast=0;collapsible=0;marginBottom=0;html=1;whiteSpace=wrap;" parent="1" vertex="1">
          <mxGeometry x="930" y="700" width="140" height="80" as="geometry" />
        </mxCell>
        <mxCell id="PPV0CoCjDwiKYYMUzD3a-65" value="-type :&lt;div&gt;-filePath :&lt;/div&gt;" style="text;html=1;strokeColor=none;fillColor=none;align=left;verticalAlign=middle;spacingLeft=4;spacingRight=4;overflow=hidden;rotatable=0;points=[[0,0.5],[1,0.5]];portConstraint=eastwest;whiteSpace=wrap;" parent="PPV0CoCjDwiKYYMUzD3a-64" vertex="1">
          <mxGeometry y="40" width="140" height="40" as="geometry" />
        </mxCell>
        <mxCell id="PPV0CoCjDwiKYYMUzD3a-67" value="" style="group" parent="1" vertex="1" connectable="0">
          <mxGeometry x="930" y="60" width="160" height="180" as="geometry" />
        </mxCell>
        <mxCell id="PPV0CoCjDwiKYYMUzD3a-55" value="Comment" style="swimlane;fontStyle=0;align=center;verticalAlign=top;childLayout=stackLayout;horizontal=1;startSize=40;horizontalStack=0;resizeParent=1;resizeParentMax=0;resizeLast=0;collapsible=0;marginBottom=0;html=1;whiteSpace=wrap;" parent="PPV0CoCjDwiKYYMUzD3a-67" vertex="1">
          <mxGeometry width="160" height="120" as="geometry" />
        </mxCell>
        <mxCell id="PPV0CoCjDwiKYYMUzD3a-56" value="-commentId: Integer&amp;nbsp;&lt;div&gt;-content: String&amp;nbsp;&lt;/div&gt;&lt;div&gt;-time: LocalDateTime&lt;/div&gt;" style="text;html=1;strokeColor=none;fillColor=none;align=left;verticalAlign=middle;spacingLeft=4;spacingRight=4;overflow=hidden;rotatable=0;points=[[0,0.5],[1,0.5]];portConstraint=eastwest;whiteSpace=wrap;" parent="PPV0CoCjDwiKYYMUzD3a-55" vertex="1">
          <mxGeometry y="40" width="160" height="80" as="geometry" />
        </mxCell>
        <mxCell id="PPV0CoCjDwiKYYMUzD3a-66" value="" style="rounded=0;whiteSpace=wrap;html=1;" parent="PPV0CoCjDwiKYYMUzD3a-67" vertex="1">
          <mxGeometry y="120" width="160" height="60" as="geometry" />
        </mxCell>
        <mxCell id="PPV0CoCjDwiKYYMUzD3a-69" style="rounded=0;orthogonalLoop=1;jettySize=auto;html=1;entryX=-0.003;entryY=0.144;entryDx=0;entryDy=0;entryPerimeter=0;" parent="1" source="PPV0CoCjDwiKYYMUzD3a-41" target="PPV0CoCjDwiKYYMUzD3a-55" edge="1">
          <mxGeometry relative="1" as="geometry" />
        </mxCell>
        <mxCell id="PPV0CoCjDwiKYYMUzD3a-71" style="rounded=0;orthogonalLoop=1;jettySize=auto;html=1;entryX=-0.012;entryY=0.135;entryDx=0;entryDy=0;entryPerimeter=0;" parent="1" source="PPV0CoCjDwiKYYMUzD3a-41" target="PPV0CoCjDwiKYYMUzD3a-57" edge="1">
          <mxGeometry relative="1" as="geometry" />
        </mxCell>
        <mxCell id="PPV0CoCjDwiKYYMUzD3a-79" value="" style="rounded=0;whiteSpace=wrap;html=1;" parent="1" vertex="1">
          <mxGeometry x="930" y="640" width="140" height="35" as="geometry" />
        </mxCell>
        <mxCell id="PPV0CoCjDwiKYYMUzD3a-80" value="" style="rounded=0;whiteSpace=wrap;html=1;" parent="1" vertex="1">
          <mxGeometry x="930" y="355" width="150" height="35" as="geometry" />
        </mxCell>
        <mxCell id="PPV0CoCjDwiKYYMUzD3a-81" value="" style="rounded=0;whiteSpace=wrap;html=1;" parent="1" vertex="1">
          <mxGeometry x="930" y="510" width="140" height="30" as="geometry" />
        </mxCell>
        <mxCell id="PPV0CoCjDwiKYYMUzD3a-82" value="" style="rounded=0;whiteSpace=wrap;html=1;" parent="1" vertex="1">
          <mxGeometry x="930" y="780" width="140" height="40" as="geometry" />
        </mxCell>
      </root>
    </mxGraphModel>
  </diagram>
</mxfile>
